<?xml version="1.0" encoding="UTF-8" standalone="no"?>
<svg
   viewBox="0 0 20 14"
   version="1.1"
   id="svg2"
   sodipodi:docname="enUS.svg"
   xml:space="preserve"
   inkscape:version="1.4.3 (fcd0343856, 2026-01-01)"
   width="20"
   height="14"
   inkscape:export-filename="enUS.png"
   inkscape:export-xdpi="96"
   inkscape:export-ydpi="96"
   xmlns:inkscape="http://www.inkscape.org/namespaces/inkscape"
   xmlns:sodipodi="http://sodipodi.sourceforge.net/DTD/sodipodi-0.dtd"
   xmlns="http://www.w3.org/2000/svg"
   xmlns:svg="http://www.w3.org/2000/svg"><defs
     id="defs2" /><sodipodi:namedview
     id="namedview2"
     pagecolor="#ffffff"
     bordercolor="#000000"
     borderopacity="0.25"
     inkscape:showpageshadow="2"
     inkscape:pageopacity="0.0"
     inkscape:pagecheckerboard="0"
     inkscape:deskcolor="#d1d1d1"
     inkscape:zoom="22.627417"
     inkscape:cx="7.4909124"
     inkscape:cy="6.5407377"
     inkscape:window-width="1870"
     inkscape:window-height="1011"
     inkscape:window-x="0"
     inkscape:window-y="0"
     inkscape:window-maximized="1"
     inkscape:current-layer="g7" /><rect
     style="fill:#d4483f;fill-opacity:1;stroke:#ffffff;stroke-width:0;stroke-linecap:round;stroke-linejoin:round;stroke-dasharray:none"
     id="rect3"
     width="20"
     height="1.999303"
     x="7.7418259e-11"
     y="1.4306431e-07"
     ry="0" /><rect
     style="fill:#d4483f;fill-opacity:1;stroke:#ffffff;stroke-width:0;stroke-linecap:round;stroke-linejoin:round;stroke-dasharray:none"
     id="rect5"
     width="20"
     height="1.999303"
     x="7.7418259e-11"
     y="4.0002322"
     ry="0" /><rect
     style="fill:#d4483f;fill-opacity:1;stroke:#ffffff;stroke-width:0;stroke-linecap:round;stroke-linejoin:round;stroke-dasharray:none"
     id="rect3-3"
     width="20"
     height="1.999303"
     x="7.7418259e-11"
     y="8.0004654"
     ry="0" /><g
     id="g7"
     inkscape:label="blue-square-stars"
     transform="matrix(1.0434534,0,0,1.0434534,-4.9073219,-2.9942962)"><rect
       style="fill:#3477cc;fill-opacity:1;stroke:#ffffff;stroke-width:0;stroke-linecap:round;stroke-linejoin:round;stroke-dasharray:none"
       id="rect2"
       width="9.5940752"
       height="7.6607947"
       x="4.7029624"
       y="2.8696024"
       ry="0" /><path
       id="path2"
       style="fill:#f9f9f9;stroke:#ffffff;stroke-width:0;stroke-linecap:round;stroke-linejoin:round"
       inkscape:transform-center-x="0.0051165354"
       inkscape:transform-center-y="-0.099264693"
       d="m 6.617187,4.1257808 -0.310546,0.652344 -0.714844,0.115235 0.52539,0.498046 -0.111328,0.714844 0.634766,-0.345703 0.646484,0.328125 -0.132812,-0.712891 0.511719,-0.513671 -0.71875,-0.09375 z m 2.871094,0 -0.3125,0.652344 -0.714844,0.115235 0.527344,0.498046 -0.111328,0.714844 0.634766,-0.345703 0.648437,0.328125 -0.134765,-0.712891 0.511718,-0.513671 -0.71875,-0.09375 z m 2.869141,0 -0.308594,0.652344 -0.714844,0.115235 0.527344,0.498046 -0.115234,0.714844 0.636718,-0.345703 0.648438,0.328125 -0.132812,-0.712891 0.509765,-0.513671 -0.720703,-0.09375 z m -5.740235,3.167969 -0.310546,0.652344 -0.714844,0.115234 0.52539,0.498047 -0.111328,0.714844 0.634766,-0.345703 0.646484,0.328125 -0.132812,-0.712891 0.511719,-0.513672 -0.71875,-0.09375 z m 2.871094,0 -0.3125,0.652344 -0.714844,0.115234 0.527344,0.498047 -0.111328,0.714844 0.634766,-0.345703 0.648437,0.328125 -0.134765,-0.712891 0.511718,-0.513672 -0.71875,-0.09375 z m 2.869141,0 -0.308594,0.652344 -0.714844,0.115234 0.527344,0.498047 -0.115234,0.714844 0.636718,-0.345703 0.648438,0.328125 -0.132812,-0.712891 0.509765,-0.513672 -0.720703,-0.09375 z" /></g><rect
     style="fill:#d4483f;fill-opacity:1;stroke:#ffffff;stroke-width:0;stroke-linecap:round;stroke-linejoin:round;stroke-dasharray:none"
     id="rect5-0"
     width="20"
     height="1.999303"
     x="7.7418259e-11"
     y="12.000697"
     ry="0" /></svg>
