<?xml version="1.0" encoding="UTF-8" standalone="no"?>
<!-- Created with Inkscape (http://www.inkscape.org/) -->

<svg
   width="41.856632mm"
   height="41.875198mm"
   viewBox="0 0 41.856632 41.875198"
   version="1.1"
   id="svg1"
   xml:space="preserve"
   xmlns="http://www.w3.org/2000/svg"
   xmlns:svg="http://www.w3.org/2000/svg"><defs
     id="defs1" /><g
     id="layer1"
     transform="translate(-96.57291,-128.85208)"><path
       d="m 110.51072,128.95252 c -5.12865,0.28025 -8.18129,0.66424 -11.276458,4.41773 -2.80245,3.39846 -2.644426,8.65702 -2.641795,13.04395 0.0021,3.447 -0.07254,6.97266 0.05671,10.40897 0.190375,5.05961 0.768523,8.23288 4.419983,11.24604 3.39014,2.7976 8.63609,2.64527 13.04268,2.64362 3.46859,-0.001 6.98536,0.0593 10.44688,-0.0593 5.12662,-0.17145 8.19228,-0.81096 11.2087,-4.41905 2.79516,-3.34347 2.64602,-8.72309 2.64323,-13.0431 -0.002,-3.44442 0.0708,-6.96659 -0.0567,-10.39914 -0.13215,-3.56668 -0.35154,-5.83852 -1.9387,-8.51604 -0.33215,-0.56051 -0.74179,-1.02408 -1.10023,-1.46583 -1.04882,-1.29273 -3.04036,-2.50909 -4.80621,-3.07132 -2.77196,-0.88263 -6.51189,-0.84755 -9.61828,-0.8463 -3.38141,0.001 -7.04499,-0.12397 -10.38003,0.0593 z"
       style="fill:#5b2dff;fill-opacity:1;fill-rule:evenodd;stroke-width:0.075182"
       id="path1-7-3" /><path
       id="path1-7"
       style="fill:#ffffff;fill-opacity:1;fill-rule:evenodd;stroke-width:0.075182"
       d="m 123.19668,133.73336 0.0713,0.0605 a 1.4712621,1.4712621 0 0 0 -0.13023,0 l 0.0589,-0.0584 c -0.0408,0 -0.0787,0.0115 -0.11937,0.0119 a 1.4712621,1.4712621 0 0 0 -0.0155,0.002 c -0.84294,0.009 -1.67094,0.0905 -2.46703,0.26355 a 1.4712621,1.4712621 0 0 0 -1.15807,1.43763 v 3.08199 a 1.4712621,1.4712621 0 0 0 1.34203,1.46657 c 0.55284,0.0488 1.62595,0.25319 2.6014,0.5917 0.97544,0.3385 1.85819,0.86671 2.13682,1.19527 0.002,0.002 0.1164,0.33807 0.0605,0.54519 -0.0559,0.20713 -0.0101,0.25781 -0.38861,0.31264 -0.57682,0.0836 -1.00103,-0.0434 -1.58026,-0.36535 -0.57922,-0.32196 -1.23433,-0.85727 -2.01952,-1.39836 a 1.4712621,1.4712621 0 0 0 -0.0253,-0.0176 c -1.67592,-1.10556 -3.65207,-1.70745 -5.68958,-1.70739 -3.74434,-6e-5 -6.97004,2.05049 -8.78086,5.04878 -4.13623,0.0557 -7.868277,1.82819 -10.508396,4.63641 -0.0093,1.74775 -0.02129,3.50557 -5.17e-4,5.25188 1.648249,-3.57254 5.099763,-6.11472 9.194273,-6.66161 -0.13565,0.66814 -0.23617,1.35119 -0.23616,2.05672 1.5e-4,4.30968 2.68564,8.17488 6.72413,9.67952 a 1.471115,1.471115 0 0 0 1.89291,-0.863 1.471115,1.471115 0 0 0 -0.86558,-1.89239 c -2.89629,-1.07908 -4.81045,-3.83335 -4.81056,-6.92413 -1e-5,-1.16536 0.2679,-2.26011 0.74414,-3.23649 1.19871,-2.45748 3.71344,-4.15432 6.64662,-4.15427 1.45738,-4e-5 2.86824,0.43112 4.06642,1.22111 h 5.2e-4 5.2e-4 l 5.1e-4,-5.1e-4 5.2e-4,5.1e-4 c 0.62747,0.43467 1.33268,1.03083 2.23656,1.53324 0.91326,0.50764 2.10493,0.89706 3.43131,0.70487 1.44529,-0.20938 2.50209,-1.32894 2.80655,-2.45721 0.30446,-1.12826 0.12769,-2.29299 -0.65578,-3.21686 -0.91903,-1.08372 -2.18459,-1.64271 -3.41633,-2.07016 -0.73213,-0.25407 -1.31902,-0.31469 -1.9668,-0.44132 v -0.60564 c 0.27456,-0.0245 0.5368,-0.0879 0.81855,-0.0879 5.13086,-1e-4 9.25948,4.12697 9.25939,9.25783 -1.2e-4,3.53952 -2.01166,6.76354 -5.19142,8.31835 a 1.4712621,1.4712621 0 0 0 -0.002,0.004 c -2.1505,0.75148 -4.41038,1.77501 -6.24044,3.34966 -1.87798,1.61587 -3.29039,3.91882 -3.30264,6.78719 a 1.471115,1.471115 0 0 0 0.13849,0.14056 1.471115,1.471115 0 0 0 -0.20102,0.20102 v 5.86889 h -3.0763 v -3.32228 c 0,-2.53287 -2.08567,-4.61884 -4.61884,-4.61884 -2.53316,0 -4.61729,2.08569 -4.61729,4.61884 v 2.81068 c 0.94826,0.23174 1.93785,0.37805 2.94142,0.46974 v -3.28042 c 0,-0.95374 0.72213,-1.67586 1.67587,-1.67586 0.95376,0 1.67535,0.72184 1.67535,1.67586 v 3.4277 c 0.84172,0.008 1.67193,0.003 2.47427,0.003 2.15202,-6.2e-4 4.32253,0.0222 6.48694,0.0114 v -5.98878 a 1.471115,1.471115 0 0 0 -0.0527,-0.0527 1.471115,1.471115 0 0 0 0.11524,-0.27544 c 0.008,-1.95613 0.85402,-3.34243 2.281,-4.57026 1.42698,-1.22782 3.44614,-2.17975 5.44773,-2.86753 a 1.4712621,1.4712621 0 0 0 0.16639,-0.0749 l -5.1e-4,0.001 c 4.18352,-2.04562 6.8418,-6.30423 6.84196,-10.96109 1.1e-4,-6.72096 -5.48038,-12.20141 -12.20133,-12.20132 z m -5.01209,13.1563 c -1.09215,0 -1.99213,0.89999 -1.99213,1.99213 0,1.09215 0.89998,1.99057 1.99213,1.99057 1.09214,0 1.99057,-0.89842 1.99057,-1.99057 0,-1.09214 -0.89843,-1.99213 -1.99057,-1.99213 z" /></g></svg>
